<svg xmlns="http://www.w3.org/2000/svg" width="61.922" height="50.292" viewBox="0 0 61.922 50.292">
  <path id="Icon_awesome-twitter" data-name="Icon awesome-twitter" d="M55.557,15.914c.039.55.039,1.1.039,1.65,0,16.777-12.769,36.108-36.108,36.108A35.863,35.863,0,0,1,0,47.976a26.254,26.254,0,0,0,3.065.157A25.416,25.416,0,0,0,18.82,42.711a12.713,12.713,0,0,1-11.866-8.8,16,16,0,0,0,2.4.2,13.422,13.422,0,0,0,3.34-.432A12.693,12.693,0,0,1,2.514,21.219v-.157a12.781,12.781,0,0,0,5.736,1.611A12.71,12.71,0,0,1,4.322,5.7a36.073,36.073,0,0,0,26.167,13.28,14.326,14.326,0,0,1-.314-2.907A12.7,12.7,0,0,1,52.138,7.388a24.986,24.986,0,0,0,8.055-3.065,12.657,12.657,0,0,1-5.579,6.994,25.441,25.441,0,0,0,7.308-1.964,27.28,27.28,0,0,1-6.365,6.561Z" transform="translate(0 -3.381)" fill="#fff"/>
</svg>
