<svg xmlns="http://www.w3.org/2000/svg" width="64" height="45" viewBox="0 0 64 45">
  <path id="Icon_awesome-youtube" data-name="Icon awesome-youtube" d="M63.713,11.541a8.042,8.042,0,0,0-5.658-5.695C53.064,4.5,33.05,4.5,33.05,4.5s-20.013,0-25,1.346a8.042,8.042,0,0,0-5.658,5.695c-1.337,5.023-1.337,15.5-1.337,15.5s0,10.481,1.337,15.5a7.922,7.922,0,0,0,5.658,5.6c4.991,1.346,25,1.346,25,1.346s20.013,0,25-1.346a7.922,7.922,0,0,0,5.658-5.6c1.337-5.023,1.337-15.5,1.337-15.5s0-10.481-1.337-15.5ZM26.5,36.561V17.529l16.727,9.516L26.5,36.561Z" transform="translate(-1.05 -4.5)" fill="#ff0b0b"/>
</svg>
