<svg xmlns="http://www.w3.org/2000/svg" width="38.733" height="26.626" viewBox="0 0 38.733 26.626">
  <path id="Icon_ionic-ios-send" data-name="Icon ionic-ios-send" d="M42.015,4.562,4.983,15.659c-.656.215-.636.86.03,1.061L15.03,20.611a2.22,2.22,0,0,0,1.846-.125L36.628,8.779c.131-.076.444-.222.565-.139s-.071.3-.182.388L19.923,22.261a.853.853,0,0,0-.161,1.325l6.547,7.22a1.055,1.055,0,0,0,1.533-.014L43.154,5.332C43.487,4.833,42.731,4.327,42.015,4.562Z" transform="translate(-4.503 -4.503)" fill="#fff"/>
</svg>
