<svg xmlns="http://www.w3.org/2000/svg" width="60.248" height="60.235" viewBox="0 0 60.248 60.235">
  <path id="Icon_awesome-instagram" data-name="Icon awesome-instagram" d="M30.126,16.912A15.443,15.443,0,1,0,45.569,32.355,15.419,15.419,0,0,0,30.126,16.912Zm0,25.484a10.04,10.04,0,1,1,10.04-10.04A10.059,10.059,0,0,1,30.126,42.4ZM49.8,16.28a3.6,3.6,0,1,1-3.6-3.6A3.594,3.594,0,0,1,49.8,16.28Zm10.228,3.656c-.228-4.825-1.331-9.1-4.866-12.621s-7.8-4.624-12.621-4.866c-4.973-.282-19.879-.282-24.852,0C12.881,2.678,8.607,3.78,5.072,7.3S.448,15.1.206,19.922C-.076,24.9-.076,39.8.206,44.774.435,49.6,1.537,53.874,5.072,57.4s7.8,4.624,12.621,4.866c4.973.282,19.879.282,24.852,0,4.825-.228,9.1-1.331,12.621-4.866s4.624-7.8,4.866-12.621c.282-4.973.282-19.866,0-24.839ZM53.607,50.111a10.165,10.165,0,0,1-5.726,5.726c-3.965,1.573-13.374,1.21-17.755,1.21s-13.8.349-17.755-1.21a10.165,10.165,0,0,1-5.726-5.726c-1.573-3.965-1.21-13.374-1.21-17.755s-.349-13.8,1.21-17.755A10.165,10.165,0,0,1,12.37,8.874c3.965-1.573,13.374-1.21,17.755-1.21s13.8-.349,17.755,1.21A10.165,10.165,0,0,1,53.607,14.6c1.573,3.965,1.21,13.374,1.21,17.755S55.179,46.159,53.607,50.111Z" transform="translate(0.005 -2.238)" fill="#fff"/>
</svg>
