<svg xmlns="http://www.w3.org/2000/svg" width="48.121" height="48.121" viewBox="0 0 48.121 48.121">
  <path id="Icon_awesome-snapchat-square" data-name="Icon awesome-snapchat-square" d="M42.965,2.25H5.156A5.157,5.157,0,0,0,0,7.406v37.81a5.157,5.157,0,0,0,5.156,5.156H42.965a5.157,5.157,0,0,0,5.156-5.156V7.406A5.157,5.157,0,0,0,42.965,2.25Zm-.7,33.824c-.376.87-1.944,1.5-4.812,1.955a13.2,13.2,0,0,0-.462,1.708.827.827,0,0,1-.87.634H36.1c-.666,0-1.375-.311-2.771-.311a5.646,5.646,0,0,0-4.017,1.472,8.014,8.014,0,0,1-5.285,1.955c-2.256.172-4.146-1.2-5.21-1.955A5.663,5.663,0,0,0,14.8,40.06a27.381,27.381,0,0,0-2.771.333.853.853,0,0,1-.892-.644,13.485,13.485,0,0,0-.462-1.719c-1.482-.226-4.812-.806-4.887-2.3a.76.76,0,0,1,.634-.795c4.973-.816,7.207-5.918,7.3-6.133,0-.011.011-.021.021-.032a1.606,1.606,0,0,0,.172-1.343c-.365-.849-1.923-1.149-2.578-1.418-1.7-.666-1.933-1.439-1.826-1.966a1.838,1.838,0,0,1,2.352-1.106,4.047,4.047,0,0,0,1.686.451,1.506,1.506,0,0,0,.709-.15c-.15-2.567-.5-6.23.408-8.282a9.754,9.754,0,0,1,9.033-5.833l.72-.011a9.668,9.668,0,0,1,9.055,5.833c.913,2.052.559,5.7.408,8.282a1.351,1.351,0,0,0,.612.15,4.238,4.238,0,0,0,1.579-.451,1.963,1.963,0,0,1,1.461,0,1.5,1.5,0,0,1,1.117,1.278c.011.7-.612,1.3-1.848,1.783-.15.064-.333.118-.526.183-.7.226-1.762.559-2.041,1.235a1.647,1.647,0,0,0,.172,1.343c.011.011.011.021.021.032.1.215,2.331,5.317,7.3,6.133a.825.825,0,0,1,.526,1.16Z" transform="translate(0 -2.25)" fill="#fff"/>
</svg>
