<svg xmlns="http://www.w3.org/2000/svg" width="60" height="60" viewBox="0 0 60 60">
  <path id="Icon_awesome-spotify" data-name="Icon awesome-spotify" d="M30,.563a30,30,0,1,0,30,30A30.01,30.01,0,0,0,30,.563ZM42.181,44.7a2.308,2.308,0,0,1-1.294-.435c-7.548-4.548-16.331-4.742-25-2.964a7.811,7.811,0,0,1-1.44.315,1.883,1.883,0,0,1-1.911-1.911,1.917,1.917,0,0,1,1.645-2.032c9.907-2.19,20.032-2,28.669,3.169a2.046,2.046,0,0,1,1.173,2A1.828,1.828,0,0,1,42.181,44.7Zm3.254-7.935a2.987,2.987,0,0,1-1.488-.508c-7.56-4.476-18.835-6.278-28.863-3.556a4.982,4.982,0,0,1-1.44.315A2.349,2.349,0,0,1,11.3,30.671a2.38,2.38,0,0,1,1.875-2.5A40.688,40.688,0,0,1,25,26.522a42.345,42.345,0,0,1,21.411,5.5,2.522,2.522,0,0,1,1.367,2.383,2.344,2.344,0,0,1-2.347,2.359Zm3.75-9.218a2.782,2.782,0,0,1-1.56-.472c-8.613-5.141-24.012-6.375-33.98-3.593a5.746,5.746,0,0,1-1.56.315,2.792,2.792,0,0,1-2.819-2.855,2.858,2.858,0,0,1,2.1-2.891,50.7,50.7,0,0,1,14.214-1.839c8.831,0,18.085,1.839,24.847,5.782a2.84,2.84,0,0,1,1.56,2.734,2.8,2.8,0,0,1-2.806,2.819Z" transform="translate(0 -0.563)" fill="#00ff3a"/>
</svg>
