<svg xmlns="http://www.w3.org/2000/svg" width="77.137" height="33.747" viewBox="0 0 77.137 33.747">
  <path id="Icon_metro-soundcloud" data-name="Icon metro-soundcloud" d="M69.761,26.2a10.273,10.273,0,0,0-3.847.742c-.791-8.614-8.308-15.372-17.476-15.372a18.349,18.349,0,0,0-6.352,1.142c-.75.279-.947.566-.947,1.124V44.17A1.16,1.16,0,0,0,42.2,45.3c.025,0,27.385.016,27.562.016a9.756,9.756,0,0,0,9.942-9.559A9.76,9.76,0,0,0,69.761,26.2ZM32.7,45.315h2.411l1.205-16.89L35.113,11.568H32.7L31.5,28.425Zm-7.232,0H23.06l-1.205-12.26L23.06,21.21h2.411l1.205,12.053Zm-12.053,0h2.411l1.205-9.642-1.205-9.642H13.418l-1.205,9.642ZM3.776,40.494H6.186l1.205-4.821L6.186,30.852H3.776L2.571,35.673Z" transform="translate(-2.571 -11.568)" fill="#ff5800"/>
</svg>
